<svg width="250" height="40" viewBox="0 0 250 40" fill="none" xmlns="http://www.w3.org/2000/svg">
<path d="M170.791 6.00235V27.7073C170.791 29.1181 171.525 29.8426 173.021 29.9146C173.04 29.916 180.559 29.916 180.559 29.916V32.3511C180.559 32.6229 180.405 32.814 180.085 32.814H167.882C164.112 32.814 163.555 30.8448 163.555 29.0564V7.47776C163.555 6.45938 163.964 5.97737 165.232 6.00382L170.791 6.00235Z" fill="#221E20"/>
<path d="M204.261 6.00382C202.833 6.00382 202.019 6.63572 201.697 7.84515L197.086 26.3333L196.96 26.3304L192.198 6.00382H185.686C184.43 6.00382 184.035 6.61662 184.035 7.563V32.814H186.786C187.229 32.814 187.412 32.6053 187.412 32.1777V11.0061H187.847L193.734 32.814H197.589C199.042 32.814 199.582 32.2482 199.94 30.8859L205.225 11.0061H205.652L205.651 32.814L210.794 32.8066C212.057 32.8066 212.633 32.3467 212.633 31.1696V6.00235L204.261 6.00382Z" fill="#221E20"/>
<path d="M156.723 6.00235L156.724 31.4003C156.724 32.5303 156.219 32.814 155.207 32.814H149.48V7.40428C149.48 6.56665 149.818 6.00382 151.102 6.00382L156.723 6.00235Z" fill="#221E20"/>
<path d="M37 9.69897C37 7.65485 37.0046 6.00016 40.5437 6.00016H56.1003V8.58066C56.1003 8.76435 56.0089 8.93041 55.7379 8.93041L46.4154 8.92747C45.1624 8.92747 44.532 9.49765 44.532 10.6968V17.5051H55.5009L55.5025 20.2091C55.5025 20.4486 55.3445 20.575 55.0967 20.575H44.532V31.3775C44.5088 32.4194 43.9605 32.8338 42.7555 32.8132H37V9.69897Z" fill="#221E20"/>
<path d="M67.3362 6.00094V26.4377C67.3362 28.1923 67.598 29.4223 68.8959 30.1336C70.6352 31.0888 73.5811 31.1035 75.3546 30.16C76.5673 29.5179 77.0304 28.4863 77.0304 26.4436V7.3632C77.0304 6.50499 77.3758 6.00094 78.6396 6.00094H84.2697L84.2712 25.8337C84.2712 30.4407 81.2138 32.3305 78.5111 33.0315C74.9147 33.9617 69.4519 33.9764 66.0584 33.0095C62.0035 31.8515 60.1093 29.5737 60.1047 25.8352L60.1016 7.37789C60.1016 6.48736 60.4392 6.00094 61.5188 6.00094H67.3362Z" fill="#221E20"/>
<path d="M118.254 15.3422C118.508 15.1468 118.657 14.9998 118.675 14.5796V6.00483H113.054C111.789 6.00483 111.437 6.59117 111.437 7.42587V20.4077L118.254 15.3422Z" fill="#221E20"/>
<path d="M118.673 20.5728H111.434V32.814H117.158C118.166 32.814 118.674 32.5333 118.674 31.4003C118.674 31.4003 118.673 26.1643 118.673 20.5728Z" fill="#221E20"/>
<path d="M93.4297 30.6939C96.5738 30.2722 97.6193 28.4999 97.6193 25.8871V7.45915C97.6193 6.357 98.2481 5.9999 99.0597 5.9999H104.859V23.4242C104.859 27.7093 103.908 29.8739 101.233 31.7006C99.8403 32.6484 97.4055 33.73 92.1302 33.73C89.11 33.73 87.7671 33.5683 87.5859 33.5287C87.3303 33.4728 87.2266 33.3244 87.2266 33.1142V30.8644C88.4672 30.8982 91.3078 30.9805 93.4297 30.6939Z" fill="#221E20"/>
<path d="M129.638 6.00153C126.102 6.00153 126.1 7.65622 126.1 9.70034V16.6086C126.1 16.7512 126.035 16.8085 125.967 16.8717L121.016 20.5734H126.1V32.8131H131.853C133.058 32.8352 133.606 32.4193 133.626 31.3789V20.5763H144.191C144.439 20.5763 144.598 20.4485 144.598 20.2104V17.505H133.626V10.6967C133.626 9.49901 134.258 8.92736 135.51 8.92736L144.835 8.9303C145.103 8.9303 145.198 8.76571 145.198 8.58202V6.00153H129.638Z" fill="#221E20"/>
</svg>
