<svg width="850" height="850" viewBox="0 0 850 850" fill="none" xmlns="http://www.w3.org/2000/svg">
<circle cx="425" cy="425" r="424.5" stroke="#E0E0E0"/>
<path d="M253 646V180H437.135C441.665 180 447.059 180.216 453.315 180.647C459.572 180.863 465.613 181.51 471.438 182.589C496.679 186.472 517.822 195.102 534.865 208.478C552.125 221.854 565.069 238.789 573.699 259.285C582.328 279.564 586.643 302.109 586.643 326.919C586.643 362.948 577.258 394.231 558.489 420.767C539.719 447.087 512.213 463.591 475.968 470.279L453.963 473.839H310.603V646H253ZM530.335 646L438.429 456.364L495.385 438.889L596.351 646H530.335ZM310.603 419.149H435.193C439.292 419.149 443.931 418.933 449.108 418.501C454.502 418.07 459.572 417.315 464.318 416.236C479.204 412.784 491.286 406.528 500.563 397.467C510.055 388.19 516.959 377.403 521.274 365.106C525.588 352.593 527.746 339.864 527.746 326.919C527.746 313.975 525.588 301.354 521.274 289.057C516.959 276.544 510.055 265.649 500.563 256.372C491.286 247.095 479.204 240.839 464.318 237.603C459.572 236.308 454.502 235.553 449.108 235.337C443.931 234.906 439.292 234.69 435.193 234.69H310.603V419.149Z" fill="#F2F2F2"/>
</svg>
