<svg width="1857" height="516" viewBox="0 0 1857 516" fill="none" xmlns="http://www.w3.org/2000/svg">
<path d="M0 505.16V6.91999H201.372C206.216 6.91999 212.213 7.15066 219.364 7.61198C226.515 7.84266 233.319 8.53467 239.778 9.688C267.458 14.0707 290.525 23.528 308.978 38.06C327.662 52.592 341.617 70.93 350.844 93.074C360.071 115.218 364.684 139.669 364.684 166.426C364.684 206.101 354.535 240.355 334.236 269.188C313.937 297.791 283.489 315.667 242.892 322.818L213.482 326.278H72.314V505.16H0ZM291.332 505.16L193.068 302.404L266.074 283.72L374.026 505.16H291.332ZM72.314 257.77H198.604C203.217 257.77 208.292 257.539 213.828 257.078C219.595 256.617 225.015 255.809 230.09 254.656C244.853 251.196 256.732 244.853 265.728 235.626C274.724 226.169 281.183 215.327 285.104 203.102C289.025 190.877 290.986 178.651 290.986 166.426C290.986 154.201 289.025 142.091 285.104 130.096C281.183 117.871 274.724 107.145 265.728 97.918C256.732 88.4607 244.853 82.002 230.09 78.542C225.015 77.158 219.595 76.2353 213.828 75.774C208.292 75.3127 203.217 75.082 198.604 75.082H72.314V257.77Z" fill="#221E20"/>
<path d="M493.32 515.54C465.64 515.54 442.458 510.465 423.774 500.316C405.09 489.936 390.904 476.327 381.216 459.488C371.759 442.419 367.03 423.735 367.03 403.436C367.03 384.521 370.375 367.913 377.064 353.612C383.754 339.311 393.672 327.201 406.82 317.282C419.968 307.133 436.115 298.944 455.26 292.716C471.868 287.872 490.668 283.605 511.658 279.914C532.649 276.223 554.678 272.763 577.744 269.534C601.042 266.305 624.108 263.075 646.944 259.846L620.648 274.378C621.11 245.083 614.882 223.401 601.964 209.33C589.278 195.029 567.364 187.878 536.224 187.878C516.618 187.878 498.626 192.491 482.248 201.718C465.871 210.714 454.453 225.707 447.994 246.698L380.524 225.938C389.751 193.875 407.282 168.387 433.116 149.472C459.182 130.557 493.782 121.1 536.916 121.1C570.363 121.1 599.427 126.867 624.108 138.4C649.02 149.703 667.243 167.695 678.776 192.376C684.774 204.601 688.464 217.519 689.848 231.128C691.232 244.737 691.924 259.385 691.924 275.07V505.16H627.914V419.698L640.37 430.77C624.916 459.373 605.194 480.709 581.204 494.78C557.446 508.62 528.151 515.54 493.32 515.54ZM506.122 456.374C526.652 456.374 544.298 452.799 559.06 445.648C573.823 438.267 585.702 428.925 594.698 417.622C603.694 406.319 609.576 394.555 612.344 382.33C616.266 371.258 618.457 358.802 618.918 344.962C619.61 331.122 619.956 320.05 619.956 311.746L643.484 320.396C620.648 323.856 599.888 326.97 581.204 329.738C562.52 332.506 545.566 335.274 530.342 338.042C515.349 340.579 501.97 343.693 490.206 347.384C480.288 350.844 471.407 354.996 463.564 359.84C455.952 364.684 449.84 370.566 445.226 377.486C440.844 384.406 438.652 392.825 438.652 402.744C438.652 412.432 441.074 421.428 445.918 429.732C450.762 437.805 458.144 444.264 468.062 449.108C477.981 453.952 490.668 456.374 506.122 456.374Z" fill="#221E20"/>
<path d="M867.925 515.54C833.094 515.54 802.992 506.89 777.619 489.59C752.476 472.29 732.985 448.762 719.145 419.006C705.535 389.019 698.731 355.342 698.731 317.974C698.731 280.375 705.651 246.813 719.491 217.288C733.331 187.532 752.937 164.119 778.311 147.05C803.915 129.75 834.247 121.1 869.309 121.1C904.601 121.1 934.241 129.75 958.231 147.05C982.451 164.119 1000.67 187.532 1012.9 217.288C1025.35 247.044 1031.58 280.606 1031.58 317.974C1031.58 355.342 1025.35 388.904 1012.9 418.66C1000.44 448.416 982.105 472.059 957.885 489.59C933.665 506.89 903.678 515.54 867.925 515.54ZM877.959 450.146C901.717 450.146 921.093 444.495 936.087 433.192C951.08 421.889 962.037 406.319 968.957 386.482C975.877 366.645 979.337 343.809 979.337 317.974C979.337 292.139 975.761 269.303 968.611 249.466C961.691 229.629 950.849 214.174 936.087 203.102C921.555 192.03 902.986 186.494 880.381 186.494C856.391 186.494 836.669 192.376 821.215 204.14C805.76 215.904 794.227 231.705 786.615 251.542C779.233 271.379 775.543 293.523 775.543 317.974C775.543 342.655 779.233 365.03 786.615 385.098C794.227 404.935 805.529 420.736 820.523 432.5C835.747 444.264 854.892 450.146 877.959 450.146ZM979.337 505.16V236.318H971.033V6.91999H1043.69V505.16H979.337Z" fill="#221E20"/>
<path d="M1085.14 70.238V0H1157.46V70.238H1085.14ZM1085.14 505.16V131.48H1157.46V505.16H1085.14Z" fill="#221E20"/>
<path d="M1339.9 515.194C1314.07 515.194 1292.38 511.042 1274.85 502.738C1257.32 494.434 1243.02 483.593 1231.95 470.214C1221.11 456.605 1212.8 441.842 1207.04 425.926C1201.27 410.01 1197.35 394.44 1195.27 379.216C1193.2 363.992 1192.16 350.613 1192.16 339.08V131.48H1265.51V315.206C1265.51 329.738 1266.66 344.731 1268.97 360.186C1271.51 375.41 1276.12 389.596 1282.81 402.744C1289.73 415.892 1299.3 426.503 1311.53 434.576C1323.99 442.649 1340.13 446.686 1359.97 446.686C1372.89 446.686 1385.11 444.61 1396.65 440.458C1408.18 436.075 1418.21 429.155 1426.75 419.698C1435.51 410.241 1442.32 397.785 1447.16 382.33C1452.24 366.875 1454.77 348.076 1454.77 325.932L1499.75 342.886C1499.75 376.794 1493.41 406.781 1480.72 432.846C1468.04 458.681 1449.81 478.864 1426.06 493.396C1402.3 507.928 1373.58 515.194 1339.9 515.194ZM1463.42 505.16V397.208H1454.77V131.48H1527.78V505.16H1463.42Z" fill="#221E20"/>
<path d="M1705.44 515.194C1660 515.194 1622.98 505.16 1594.37 485.092C1565.77 465.024 1548.24 436.767 1541.78 400.322L1615.83 388.904C1620.44 408.28 1631.05 423.619 1647.66 434.922C1664.5 445.994 1685.37 451.53 1710.28 451.53C1732.89 451.53 1750.53 446.917 1763.22 437.69C1776.14 428.463 1782.6 415.777 1782.6 399.63C1782.6 390.173 1780.29 382.561 1775.68 376.794C1771.29 370.797 1761.95 365.145 1747.65 359.84C1733.35 354.535 1711.55 347.961 1682.26 340.118C1650.19 331.814 1624.71 322.933 1605.79 313.476C1587.11 303.788 1573.73 292.601 1565.66 279.914C1557.81 266.997 1553.89 251.427 1553.89 233.204C1553.89 210.599 1559.89 190.877 1571.88 174.038C1583.88 157.199 1600.72 144.167 1622.4 134.94C1644.31 125.713 1669.92 121.1 1699.21 121.1C1727.81 121.1 1753.3 125.598 1775.68 134.594C1798.05 143.59 1816.16 156.392 1830 173C1843.84 189.377 1852.14 208.638 1854.91 230.782L1780.87 244.276C1778.33 226.284 1769.91 212.098 1755.61 201.718C1741.31 191.338 1722.74 185.687 1699.9 184.764C1677.99 183.841 1660.23 187.532 1646.62 195.836C1633.01 203.909 1626.21 215.097 1626.21 229.398C1626.21 237.702 1628.74 244.737 1633.82 250.504C1639.12 256.271 1649.27 261.807 1664.27 267.112C1679.26 272.417 1701.4 278.761 1730.7 286.142C1762.07 294.215 1786.98 303.211 1805.43 313.13C1823.89 322.818 1837.03 334.467 1844.88 348.076C1852.95 361.455 1856.99 377.717 1856.99 396.862C1856.99 433.769 1843.49 462.717 1816.51 483.708C1789.75 504.699 1752.73 515.194 1705.44 515.194Z" fill="#221E20"/>
</svg>
